<mxfile host="app.diagrams.net" modified="2023-04-10T10:53:00.935Z" agent="Mozilla/5.0 (Windows NT 10.0; Win64; x64) AppleWebKit/537.36 (KHTML, like Gecko) Chrome/111.0.0.0 Safari/537.36" version="21.1.4" etag="sEp9n17Qs3-VRhdWwMyt" type="github">
  <diagram name="페이지-1" id="Uc4L0UZynH5GrfvCbNCK">
    <mxGraphModel>
      <root>
        <mxCell id="0" />
        <mxCell id="1" parent="0" />
      </root>
    </mxGraphModel>
  </diagram>
</mxfile>
